/* XPM */
static char *_709a3ce538d4220f86edd261e4d0accFFdKgTAyhFNyOyXw[] = {
/* columns rows colors chars-per-pixel */
"64 64 220 2 ",
"   c #393271",
".  c #72345F",
"X  c #643463",
"o  c #1D7A51",
"O  c #247F5A",
"+  c #255A6B",
"@  c #6C694E",
"#  c #75576C",
"$  c #786C77",
"%  c #D62E31",
"&  c #D33030",
"*  c #DE3A3B",
"=  c #AB731E",
"-  c #BA542C",
";  c #B5523B",
":  c #92782D",
">  c #B56823",
",  c #EC7D1D",
"<  c #C65A24",
"1  c #C75927",
"2  c #CE4F34",
"3  c #CC682D",
"4  c #CF7128",
"5  c #853C58",
"6  c #B32E54",
"7  c #94534D",
"8  c #AD564F",
"9  c #B35958",
"0  c #8E6C4B",
"q  c #B66446",
"w  c #A6635C",
"e  c #AE735D",
"r  c #954E6D",
"t  c #B95F6D",
"y  c #976361",
"u  c #94736E",
"i  c #B17065",
"p  c #C9774B",
"a  c #CB7752",
"s  c #D3546D",
"d  c #F75C67",
"f  c #F56F77",
"g  c #32B10F",
"h  c #3BBA14",
"j  c #36AB28",
"k  c #789816",
"l  c #5CAB1A",
"z  c #44BF1B",
"x  c #62AA1B",
"c  c #4A9933",
"v  c #629137",
"b  c #68B320",
"n  c #43C31B",
"m  c #49CD1F",
"M  c #4DC629",
"N  c #56CA2A",
"B  c #58D62B",
"V  c #5BD331",
"C  c #5DDA31",
"Z  c #62DB35",
"A  c #69E33A",
"S  c #6AE73A",
"D  c #70EC3D",
"F  c #2F8D51",
"G  c #3EA94B",
"H  c #449D45",
"J  c #6F9657",
"K  c #42B341",
"L  c #56B149",
"P  c #7FB84E",
"I  c #569274",
"U  c #76AD65",
"Y  c #57C148",
"T  c #6CCB59",
"R  c #73ED43",
"E  c #75E94E",
"W  c #76F144",
"Q  c #8A8F1A",
"!  c #8B8E26",
"~  c #88B123",
"^  c #AAB620",
"/  c #DF9F1B",
"(  c #EE891D",
")  c #E99719",
"_  c #DAA41D",
"`  c #D0AD1F",
"'  c #FEB30D",
"]  c #E8AB1A",
"[  c #F4AE14",
"{  c #FE9623",
"}  c #F3922A",
"|  c #F89628",
" . c #E98A36",
".. c #D3B52A",
"X. c #E6AC25",
"o. c #AFCF35",
"O. c #97E13C",
"+. c #F7CA10",
"@. c #9B845D",
"#. c #949072",
"$. c #A6836A",
"%. c #AC8572",
"&. c #AA9D7A",
"*. c #8FB16A",
"=. c #AFA27F",
"-. c #B7A979",
";. c #BFB27B",
":. c #D5804C",
">. c #F69A4C",
",. c #FBAB51",
"<. c #D2997A",
"1. c #C6B878",
"2. c #C7B97D",
"3. c #CABB7C",
"4. c #D4B07B",
"5. c #FCAC63",
"6. c #F8AD72",
"7. c #F9B376",
"8. c #B1CA56",
"9. c #D1D169",
"0. c #D6C578",
"q. c #DDCC7B",
"w. c #EED76D",
"e. c #E4D27C",
"r. c #E8D57A",
"t. c #EDDB7D",
"y. c #F1DE7C",
"u. c #F6E27C",
"i. c #FBE67B",
"p. c #63648D",
"a. c #6D6E9B",
"s. c #886B88",
"d. c #A26486",
"f. c #CF6D80",
"g. c #F27D81",
"h. c #718689",
"j. c #7E89A2",
"k. c #948A8A",
"l. c #918E94",
"z. c #A8988B",
"x. c #B4988B",
"c. c #A59A97",
"v. c #B39A91",
"b. c #8CB491",
"n. c #B2A687",
"m. c #B4AA87",
"M. c #AAA296",
"N. c #B9A79B",
"B. c #8E8BA4",
"V. c #8788AA",
"C. c #9697AE",
"Z. c #8D8EB4",
"A. c #9A9AB5",
"S. c #9D9EBC",
"D. c #A09FB8",
"F. c #9BB2AE",
"G. c #B2AEAC",
"H. c #A6A6B9",
"J. c #A8B8B7",
"K. c #BAB5B9",
"L. c #D4A58C",
"P. c #CAAC99",
"I. c #CCB19E",
"U. c #F2B687",
"Y. c #D7B7A1",
"T. c #C0A8B6",
"R. c #C9BDBB",
"E. c #B0C89B",
"W. c #B5F69E",
"Q. c #BFCAAE",
"!. c #BBF5A6",
"~. c #D4C580",
"^. c #FAC799",
"/. c #FAE680",
"(. c #CAC0BD",
"). c #EBC9AA",
"_. c #FAD5AF",
"`. c #FFD8AF",
"'. c #F1CBB1",
"]. c #FED9B2",
"[. c #FDDABB",
"{. c #FEE0BF",
"}. c #A3A4C2",
"|. c #AFAFCC",
" X c #B3B4C1",
".X c #BABAC8",
"XX c #B9B9D5",
"oX c #C0BFD8",
"OX c #C8C3C8",
"+X c #C9CAD9",
"@X c #D2D0D3",
"#X c #D3D4DB",
"$X c #E9DDD3",
"%X c #FEE1C3",
"&X c #FEE6CC",
"*X c #FEE8CF",
"=X c #E7E1D0",
"-X c #FEEAD4",
";X c #F7E7D9",
":X c #FDEDDC",
">X c #FEF0DE",
",X c #CDCDE3",
"<X c #D4D4E3",
"1X c #DDDDE3",
"2X c #D3D4E8",
"3X c #E2E4E6",
"4X c #E6E6E9",
"5X c #EAEAEC",
"6X c #F9E7E7",
"7X c #FFEFE0",
"8X c #FFF0E0",
"9X c #FAF2ED",
"0X c #E6E6F1",
"qX c #EDEDF2",
"wX c #EFF0F1",
"eX c #F2F2F5",
"rX c #FCF6F4",
"tX c #FDF8F7",
"yX c #F5F6F9",
"uX c #FEFEFE",
/* pixels */
"i.i.i.i.i.i.i.i.i.i.i.i.i.i.i.i.i.i.i.i.i.i.i.i.i.i.i.i.i.i.i.i.i.i.i.i.i.i.i.i.i.i.i././.i.i.i.i.i.i.i.i.i.i.i.i.i.i.i.i.i.i.i.",
"i.i.i.i.i.i.i.i.i.i.i.i.i.i.i.i.i.i.i.i.i.i.i.i.i.i.i.i.i.i.i.i.i.i.i.i.i.i.i.i.i.i./.i.i.i.i.i.i.i.i.i.i.i.i.i.i.i.i.i.i.i.i.i.",
"i.i.i.i.i.i.i.i.i.i.i.i.i.i.i.i.i.i.i.i.i.i.i.i.i.i.i.i.i.i.i.i.i.i.i.i.i.i.i.i.i.i.i.i.i.i.i.i.i.i.i.i.i.i.i.i.i.i.i.i.i.i.i.i.",
"i.i.i.i.i.i.i.i.i.i.i.i.i.i.i.i.i.i.i.i.i.i.i.i.i.i.i.i.i.i.i.i.i.i.i.i.i.i.i.i.i.i.i.i.i.i.i.i.i.i.i.i.i.i.i.i.i.i.i.i.i.i.i.i.",
"i.i.i.i.i.i.i.i.i.i.i.i.i.i.i.i.i.i.i.i.i.i.i.i./.i.i.i.i.i.i.i.i.i.i.i.i.i.i.i.i.i.i.i.i.i.i.i.i.i.i.i.i.i.i.i.i.i.i.i.i.i.i.i.",
"i.i.i.i.i.i.i.i.i.i.i.i.i.i.i.i.i.i.i.i.i.i.i.i.i.i.i.i.i.i.i.i.i.i.i.i.i.i.i.i.i.i.i.i.i.i.i.i.i.i.i.i.i.i.i.i.i.i.i.i.i.i.i.i.",
"i.i.i.i.i.i./.i.i.i.i.i.i.i.i.i.i.i.i.i.i./.i.i.i.i.i.i.i.i.i.i.i.i.i.i.i.i.i.i.i.i.i.i.i.i.i.i.i.i.i.i.i.i.i.i.i.i.i.i.i.i.i.i.",
"i.i.i.i.i.i.i.i.i.i.i.i.i.i.i.i.i.i.i.i.i.u.i.i.i.i.i.i.i.i.i.i.i.i.i.i.i.i.i.i.i.i.i.i.i.i.i.i.i.i.i.i.i.i.i.i.i.i.i.i.i.i.i.i.",
"i.i.i.i./.i.i.i.i.i.i.i.i.i.i.i.i.i.i.i.i.i.i.i.i.i.i.i.i.i.i.i.i.i.i.i.i.i.i.i.i.i.i.i.i.i.i.i.i.i.i.i.i.i.i.i.i.i.i.i.i.i.i.i.",
"i.i.i./.i.i.i.i.i.i.i.i.i.i.i.i.i.i.i.i.i.i.i.i.i.i.i.i.i.i.i.i.i.i.i.i.i.i.n..Xc.t.i.i.i.i.i.i.i././.i.i.i.i.i.i.i.i.i.i.i.i.i.",
"i.i.i.i.i.i.i.i.i.i.i.i.i.i.i.i.i.i.i.i.i.i.i.i.i.i.q.0.u.i.i.i.i.i.i.i.u.M.eXT.G.M.i.i.i.i.i.i.i./.i.i.i.i.i.i.i.i.i.i.i.i.i.i.",
"i.i.i.i.i.i.i.i.i.i.i.i.i.i.i.i.i.i.i.i.i.i.i.i.i.;.<.L.v.=.y.i.i.i.i.i.;.4X5Xs f. Xr.i.i.i.i.i./.i.i.i.i.i.i.i.i.i.i.i.i.i.i.i.",
"i.i.i.i.i.i.i.i.i.i.i.i.i.i.i.i.i.i.i.i.i.i.i.i.i.$.r a } 7.v.L.i.i.w.4.H.5XT.f g. X-.i.i.i.i.i.i.i.i.i.i.i.i.i.i.i.i.i.i.i.i.i.",
"i.i.i.i.i.i.i.i.i.i.i.i.i.i.i.i.i.i.i.i.i.i.i.i.i.e t d 9 } >.%.z.x.L.oX#XOXH.d.f.T.G.i.i.i.i.i.i.i.i.i.i.i.i.i.i.i.i.i.i.i.i.i.",
"i.i.i.i.i.i.i.i.i.i.i.i.i.i.i.i.i.i.i.i.i.i.i.i.i.%.t L.d i  .>.{ { { '.uXuXuXuX+Xs.}.i.i.i.i.i.i.i.i.i.i.i.i.i.i.i.i.i.i.i.i.i.",
"i.i.i.i.i.i.i.i.i.i.i.i.i.i.i.i.i.i.i.i.i.i.i.i.i.i s g.s  .{ { { { { _.uXuXuXuXuXqXa.t.i.i.i.i.i.i.i.i.i.i.i.i.i.i.i./.i.i.i.i.",
"i.i.i.i.i.i.i.i.i.i.i.i.i.i.i.i.i.i.i.i.i.i.i.i.i.-.8 f.:.{ { { { { { :XuXuXuX#XC.3X4X-.i.i.i.i.i.i.i.i.i.i.i.i.i.i././.i.i.i.i.",
"i.i.i.i.i.i.i.i.i.i.i.i.i.i.i.i.i.i.i.i.i.i.i.i.i.0.; w { { { { | p U.uXuXuXuXyX4X+XtXH.t.i.i.i.i.i.i.i.i.i.i.i.i./.i.i.i.i.i.i.",
"i.i.i.i.i.i.i.i.i.i.i.i.i.i.i.i.i.i.i.i.i.i.i.i.i.y.#  .{ { { { w i 9XuXuXuXuXuXuXuXuX5X-.i.i.i.i.i.i.i.i.i.i.i.i.i.i.i.i.i.i.i.",
"i.i.i.i.i.i.i.i.i.i.i.i.i.i.i.i.i.i.i.i.i.i.i.i.i.i.z.6.{ { { { Y.tXuXuXuXuXuXuXuXuXuXuXl.i.i.i.i.i.i.i.i.i.i.i./.i.i.i.i.i.i.i.",
"i.i.i.i.i.i.i.i.i.i.i.i.i.i.i.i.i.i.i.i.i.i.i.i.i.t..XuX9X&X:XrXuXuXuXuXuXuXuXuX#XH.#XuXJ.t.i.i.i.i.i.i.i.i.i.i.i.i.i.i.i.i.i.i.",
"i.i.i.i.i.i.i.i.i.i.i.i.i.i.i.i.i.i.i.i.i.i.i.i.i.3.3XuXuXuXuXuXuXeXuXuXuXuXuXuXA.tXOX5XwXc.i.i.i.i.i.i.i.i.i.i.i.i.i.i.i.i.i.i.",
"i.i.i.i.i.i.i.i.i.i.i.i.i.i.i.i.i.i.i.i.i.i.i.i.i.&.uXuXuXuXuXuXA.H.C.uXuXyX1XwX#XuXuXyXyX1X;.i.i.i.i.i.i.i.i.i.i.i.i.i.i.i.i.i.",
"i.i.i.i.i.i.i.i.i.i.i.i.i.i.i.i.i.i.i.i./.i.i.i.i.c.uXuXuXuXuXyXOXuX1X5XuX Xp.1XuXuX6X6X6X9Xc.i.i.i.i.i.i.i.i.i.i.i.i.i.i.i.i.i.",
"i.i.i.i.i.i.i.i.i.i.i.i.i.i.i.i.i.i.i.i.i.i.i.i.y.J.uXuXuXuXuXrXyXrX6XuX5XqXD..X1XuXuXuXuXuXc.i.i.i.i.i.i.i.i.i.i.i.i.i.i.i.i.i.",
"i.i.i.i.i.i.i.i.i.i.i.i.i.i.i.i.i.i././.i.i.i.i.-.S.wXuXuXuXuXuX6X9XrXuXuX.X1X4XuXuXuXuXuX4X-.u.i.i.i.i.i.i.i.i.i.i.i.i.i.i.i.i.",
"i.i./.i.i.i.i.i.i.i.i.i.i.i.i.i.i.i.i.i.i.i.i.i.e.$ ,XyXuXuXuXuXuXuXuXuXuXuXuXuXuXuXuXuXqXs./.u.i.i.i.i.i.i.i.i.i.i.i.i.i.i.i./.",
"/./.i.i.i.i.i.i.i.i.i.i.i.i.i.i.i.i.i.i.i.i.i.i.u.z.A.,XqXuXuXuXuXuXuXuXuXuXuXuXuXuXyX#Xl./././.i.i.i.i.i.i.i.i.i.i.i.i.i.i.i./.",
"/.i.i.i.i.i.i.i.i.i.i.i.i.i.i.i.i.i.i.i.i.i.i.i.i.i.m.V.|.<X0XeXuXuXuXuXuXuXuXeX0X,XA.n.i.i./.i.i.i.i.i.i.i.i.i.i.i.i.i.i.i.i.i.",
"i.i.i.i.i.i.i.i.i.i.i.i.i.i.i.i.i.i.i.i.i.i.i.u.u.0.K.uX Xa.}.}.}.}.oX2X2X,XXXS.Z.A. Xm./.i.i.i.i.i.i.i.i.i.i.i.i.i.i.i.i.i.i.i.",
"i.i.i.i.i.i.i.i.i.i.i.i.i.i.i.i.i.i.i.i.i.e.-.#.j V.uXuXuXuXuXuXeX4X@XH.C.Z.a.,XqXtXeXD.~./.i.i.i.i.i.i.i.i.i.i.i.i.i.i.i.i.i.i.",
"i.i.i.i.i.i.i.i.i.i.i.i.i.y.1.=.3.y.i.1.J c ! ~ U eXuXuXuXuXuXuXuXuXuXuX X+ G I S.<XH.|.L 8.i.i.i.i.i.i.i.i.i.i.i.i.i.i.i.i.i.i.",
"i.i.i.i.i.i.i.i.i.i.i./.;.i U.^.U.e $ J D O.X.4 J.rXyX3X2X2X0X9XeXyXyXH.<X+ n n j o O F S S 8.i.i.i.i.i.i.i.i.i.i.i.i.i.i.i.i.i.",
"i.i.i.i.i.i.i.i.i.i.u.1.L.7.5.,.7.7.3 L o.' } 6 5X5Xb.Y K H F I j.V.V.a.I G U E.K.Q.G.b.n B m 9.i.i.i.i.i.i.i.i.i.i.i.i.i.i.i.i.",
"i.i.i.i.i.i.i.i.i./.i.e >.{ | ( | { { J [ +.2 r #XT D W M l z c j h n h T Q.8X9X8X8X8X8X=XE.U 9.i.i.i.i.i.i.i.i./.i.i.i.i.i.i.i.",
"i.i.i.i.i.i.i.i./.i.r.p { {  .8 3 { { @.X.+.* p.b.D D Z l q s.OX:X>X;X8X8X8X>X>X8X8X8X8X>X>X>Xk.i.i.i.i.i.i.i./.i.i.i.i.i.i.i.i.",
"i.i.i.i.i.i.i.i./.i.e.a { { 8 e.X { U.G...] * # T E n ! 7 R.8X8X8X8X8X8X8X8X8X8X8X8X8X8X8X>X>X(.r.i.i.i.i.u./.i.i.i.i.i.i.i.i.i.",
"i.i.i.i.i.i.i.i.i.i.y.e ( , $.i.  rXuXF.o./ * v !.W M 0 OX8X8X8X8X8X8X8X8X8X8X8X8X8X8X8X8X>X>X@Xe.i.i.i.i.i.i.i.i.i.i.i.i.i.i.i.",
"i.i.i.i.i.i.i.i.i.i.i.3.y y q.i.#.uXuXb.O.) * N !.D n l.>X8X8X8X8X8X8X8X8X8X8X8X8X8X8X8X8X8X>XT.y.i.i.i.i.i.i.i.i.i.i.i.i.i.i.i.",
"i.i.i.i.i.i.i.i.i.i.i.i.i.i.i.i.N.uXuXI B ) 2 C R C c R.8X8X8X8X8X8X8X8X8X8X8X8X8X8X8X8X8X8X;Xz.i.i.i.i.i.i.i.i.i.i.i.i.i.i.i.i.",
"i.i.i.i.i.i.i.i.i.i.i.i.i.i.i.i.M.uXyX@ n X.- C D N : oX-X:X8X8X8X8X8X8X8X8X8X8X8X>X:X&X:X8X;X2.i.i.i.i.i.i.i.i.i.i.i.i.i.i.i.i.",
"i.i.i.i.i.i.i.i.i.i.i.i.i.i.i.i.K.uX0X: h _ 4 V D n = G.>X>X>X>X8X8X8X8X8X8X8X8X>X:X8X>X7X7X4X2.i.i.i.i.i.i.i.i.i.i.i.i.i.i.i.i.",
"i.i.i.i.i.i.i.i.i.i.i.i.i.i.i.i. XuX4X7 g ` / l n c 7 r $X8X8X>X8X8X8X8X8X8X8X8X:X-X8X8X7X7X;X1.i.i.i.i.i.i.i.i.i.i.i.i.i.i.i./.",
"i.i.i.i.i.i.i.i.i.i.i.i.i.i.i.i.K.uX5X@ B ` / a.g k < ; R.>X8X-X:X8X8X8X8X8X8X8X:X8X8X8X-X;X$X1.i.i.i.i.i.i.i.i.i.i.i.i.i.i././.",
"i.i.i.i.i.i.i.i.i.i.i.i.i.i.i.i.M.uXuXh.R ..$.F.S N < ; (.8X8X8X>X>X>X>X8X8X8X8X8X8X8X8X8X8X=X1.i.i.i.i.i.i.i.i.i.i.i.i.i././.i.",
"i.i.i.i.i.i.i.i.i.i.i.i.i.i.i.i.;.qXuXqX XH.+XJ.W V < ; (.8X8X8X8X:X:X8X8X8X8X8X8X8X&X:X8X8X'.1.i.i.i.i.i.i.i.i.i.i.i.i./.i.i.i.",
"i.i.i.i.i.i.i.i.i.i.i.i.i.i.i.i.u.V.qXuXuX0X,XF.D b < ; R.:X>X8X8X>X-X8X8X8X8X8X8X8X8X8X7X:X).0.i.i.i.i.i.i.i.i.i.i.i.i.i.i.i.i.",
"i.i.i.i.i.i.i.i.i.i.i.i.i.i.i.i.u.. s.S.XX|.B.@ Z M = q I.>X:X&X>X8X8X8X8X8X8X8X8X8X8X7X8X&XY.~.i.i.i.i.i.i.i.i.i.i.i.i.i.i.i.i.",
"i.i.i.i.i.i.i.i.i.i.i.i.i.i.i.i.i.5 3 N P p % - N Z Q q P.&X8X8X8X8X8X8X8X8X8X8X8X8X8X8X:X].I.r.i.i.i.i.i.i.i.i.i.i.i.i.i.i.i.i.",
"i.i.i.i.i.i.i.i.i.i.i.i.i.i.i.i.i.u 3 x ^ ) % = Z Z Q q P.].:X8X8X8X-X*X8X8X8X8X8X8X8X>X%X].z.i.i.i.i.i.i.i.i.i.i.i.i.i.i.i.i.i.",
"i.i.i.i.i.i.i.i.i.i.i.i.i.i.i.i.i.$.< k ` [ % : W D Q q P.`.%X8X8X8X8X8X8X8X8X8X8X8X8X%X`.].n.i.i.i.i.i.i.i.i.i.i.i.i.i.i.i.i.i.",
"i.i.i.i.i.i.i.i./.i.i.i.i.i.i.i.i.q.7 = ) ' & : S n = ; P.`.].[.:X8X8X8X8X8X>X>X>X*X].`.`.).-.i.i.i.i.i.i.i.i.i.i.i.i.i.i.i.i.i.",
"i.i.i.i.i.i.i.i.i.i.i.i.i.i.i.i.i.i.0.u ) ' 4 > A z < < v.`.].`.].%X&X&X*X&X%X{.].].`._.I.&.u.i.i.i.i.i.i./.i.i.i.i.i.i.i.i.i.i.",
"i.i.i.i.i.i.i.i.i.i.i.i.i.i.i.i.i.i.i.i.w.,.{ 4 b z > < z.`.].].].`.`.`.`._.`.`._.Y.v.=.e.i.i.i.i.i.i.i./.i.i.i.i.i.i.i.i.i.i.i.",
"i.i.i.i.i.i.i.i.i.i.i.i.i.i.i.i.i.i.i.i.i.i.i.i.r.*.8 < u ].].].`.`.`.`.).Y.v.v.-.0.u.i.i.i.i.i.i.i.i.i.i.i.i.i.i.i.i.i.i.i.i.i.",
"i.i.i.i.i.i.i.i.i.i.i.i.i.i.i.i.i.i.i.i.i.i.i.i.i.i.0.&.u s.z.n.N.z.n.&.1.q.i.i.i.i.i.i.i.i.i.i.i.i.i.i.i.i.i.i.i.i.i.i.i.i.i.i.",
"i.i.i.i.i.i.i.i.i.i.i.i.i.i.i.i.i.i.i.i.i.i.i.i.i.i.i.i.i.i.i.i.i.i./.i.i.i.i.i.i.i.i.i.i.i.i.i.i./.i.i.i.i.i.i.i.i.i.i.i.i.i.i.",
"i.i.i.i.i.i.i.i.i.i.i.i.i.i.i.i.i.i.i.i.i.i.i.i.i.i.i.i.i.i.i.i.i.i.i.i.i.i.i.i.i.i.i.i.i.i.i.i.i.i.i.i.i.i.i.i.i.i.i.i.i.i.i.i.",
"i.i.i.i.i.i.i.i.i.i.i.i.i.i.i.i./.i.i.i.i.i.i.i.i.i.i.i.i.i.i./.i.i.i.i.i.i.i.i.i.i.i.i.i.i.i.i.i.i.i.i.i.i.i.i.i.i.i.i.i.i.i.i.",
"i.i.i.i.i.i.i.i.i.i.i.i.i.i.i.i.i.i.i.i.i.i.i.i.i.i.i.i.i.i.i./.i.i.i.i.i.i.i.i.i.i.i.i.i.i.i.i.i.i.i.i.i.i.i.i.i.i.i.i.i.i.i.i.",
"i.i.i.i.i.i.i.i.i.i.i.i.i.i./.i.i.i.i.i.i.i.i.i.i.i.i.i.i.i.i.i.i.i.i.i.i.i.i.i.i.i.i.i.i.i.i.i.i.i.i.i.i.i.i.i.i.i.i.i.i.i.i.i.",
"i.i.i.i.i.i.i.i.i.i.i.i.i.i.i.i.i.i.i.i.i.i.i.i.i.i.i.i.i.i.i.i.i.i.i.i.i.i.i.i.i.i.i.i.i.i.i.i.i.i.i.i.i.i.i.i.i.i.i.i./.i.i.i.",
"i.i.i.i.i.i.i.i.i.i.i.i././.i.i.i.i.i.i.i.i.i.i.i.i.i.i.i.i.i.i.i.i.i.i.i.i.i.i.i.i.i.i.i.i.i.i.i.i.i.i.i.i.i.i.i.i././.i.i.i.i.",
"i.i.i.i.i.i.i.i.i.i.i.i.i.i.i.i./.i.i.i.i.i.i.i.i.i.i.i.i.i.i.i.i.i.i.i.i.i.i.i./.i./.i.i.i.i.i.i.i.i.i.i.i.i.i.i././.i.i./.i.i."
};
