/* XPM */
static char *_d4ae3e8ba51464984b34f4ce2375cf1rTrRsgB2FFi4eJr1[] = {
/* columns rows colors chars-per-pixel */
"64 64 162 2 ",
"   c #462F1F",
".  c #482F1F",
"X  c #47301F",
"o  c #49301F",
"O  c #472F20",
"+  c #482F20",
"@  c #453322",
"#  c #4B3323",
"$  c #433926",
"%  c #4D3529",
"&  c #423E29",
"*  c #4E392D",
"=  c #513927",
"-  c #553C2A",
";  c #593F2C",
":  c #543D33",
">  c #583E35",
",  c #3F452E",
"<  c #3E482F",
"1  c #3F4730",
"2  c #3E4830",
"3  c #41412C",
"4  c #5B412E",
"5  c #564131",
"6  c #5E4431",
"7  c #544339",
"8  c #5E443D",
"9  c #5B493D",
"0  c #614632",
"q  c #654934",
"w  c #694C36",
"e  c #62453F",
"r  c #6C4F39",
"t  c #6E513A",
"y  c #73553D",
"u  c #77583F",
"i  c #5D4E45",
"p  c #5F5048",
"a  c #654A45",
"s  c #694C47",
"d  c #6C4F4B",
"f  c #775740",
"g  c #775840",
"h  c #7B5B42",
"j  c #70504D",
"k  c #705B4B",
"l  c #675B54",
"z  c #6C5F58",
"x  c #755453",
"c  c #7C5B5B",
"v  c #73604F",
"b  c #746050",
"n  c #7B6755",
"m  c #72655D",
"M  c #716660",
"N  c #766B64",
"B  c #796F69",
"V  c #7E746D",
"C  c #7F7570",
"Z  c #805F45",
"A  c #805E5F",
"S  c #836146",
"D  c #89684E",
"F  c #886A52",
"G  c #86725F",
"H  c #876466",
"J  c #906B6D",
"K  c #947C64",
"L  c #946D71",
"P  c #807771",
"I  c #9D7579",
"U  c #A0777D",
"Y  c #A37A7E",
"T  c #9F8268",
"R  c #8B837E",
"E  c #9D8873",
"W  c #A5896E",
"Q  c #A78C71",
"!  c #AA967C",
"~  c #B1967A",
"^  c #A67B81",
"/  c #AA7E84",
"(  c #8F8783",
")  c #958E8A",
"_  c #97918D",
"`  c #9B928C",
"'  c #9B9592",
"]  c #9F9994",
"[  c #AC8085",
"{  c #AF8188",
"}  c #B2848B",
"|  c #B19C83",
" . c #B89F84",
".. c #B78990",
"X. c #BB8B93",
"o. c #A09A96",
"O. c #AA9E94",
"+. c #A49F9B",
"@. c #B6A088",
"#. c #BDA88D",
"$. c #AAA39D",
"%. c #B3A89F",
"&. c #AAA5A2",
"*. c #AEA9A5",
"=. c #B3AAA3",
"-. c #B8AEA6",
";. c #B1ADAA",
":. c #B6B2AE",
">. c #BEB4AD",
",. c #B8B4B1",
"<. c #BEBBB8",
"1. c #C18F98",
"2. c #C09097",
"3. c #C4919B",
"4. c #C8959F",
"5. c #C2A98D",
"6. c #C3AD92",
"7. c #C8B093",
"8. c #CBB599",
"9. c #D2BB9D",
"0. c #CB97A1",
"q. c #CD99A3",
"w. c #D19CA6",
"e. c #D39EA9",
"r. c #DAA2AE",
"t. c #DEA6B2",
"y. c #C0B7B1",
"u. c #C3BBB5",
"i. c #C2BEBA",
"p. c #E0A7B4",
"a. c #E4AAB6",
"s. c #E7ADBA",
"d. c #E8ADBA",
"f. c #EDB1BE",
"g. c #D6C0A2",
"h. c #DDC6A7",
"j. c #C3C0BD",
"k. c #EFB2C0",
"l. c #F2B5C3",
"z. c #F8B8C7",
"x. c #F7B8C8",
"c. c #FBBBCB",
"v. c #C6C3C0",
"b. c #CBC7C3",
"n. c #CEC9C5",
"m. c #D0CBC6",
"M. c #D2CDCA",
"N. c #D5D2CF",
"B. c #D6D4D2",
"V. c #D9D6D3",
"C. c #DCD9D6",
"Z. c #DEDBD9",
"A. c #E5E2DF",
"S. c #E5E3E1",
"D. c #E9E6E4",
"F. c #EAE9E7",
"G. c #EDECEA",
"H. c #F1F0EF",
"J. c #F5F4F3",
"K. c #F8F7F5",
"L. c #F8F8F7",
"P. c #FEFEFE",
/* pixels */
"c.c.c.c.c.c.c.c.c.c.c.c.c.c.c.c.c.c.c.c.c.c.c.c.c.c.c.c.c.c.c.c.c.c.c.c.c.c.c.c.c.c.c.c.c.c.c.c.c.c.c.c.c.c.c.c.c.c.c.c.c.c.c.c.",
"c.c.c.c.c.c.c.c.c.c.c.c.c.c.c.c.c.c.c.c.c.c.c.c.c.c.c.c.c.c.c.c.c.c.c.c.c.c.c.c.c.c.c.c.c.c.c.c.c.c.c.c.c.c.c.c.c.c.c.c.c.c.c.c.",
"c.c.c.c.c.c.c.c.c.c.c.c.c.c.c.c.c.c.c.c.c.c.c.c.c.c.c.c.c.c.c.c.c.c.c.c.c.c.c.c.c.c.c.c.c.c.c.c.c.c.c.c.c.c.c.c.c.c.c.c.c.c.c.c.",
"c.c.c.c.c.c.c.c.c.c.c.c.c.c.c.c.c.c.c.c.c.c.c.c.c.c.c.c.c.c.c.c.c.c.c.c.c.c.c.c.c.c.c.c.c.c.c.c.c.c.c.c.c.c.c.c.c.c.c.c.c.c.c.c.",
"c.c.c.c.c.c.c.c.c.c.c.c.c.c.c.c.c.c.c.c.c.c.c.c.c.c.c.c.c.c.c.c.c.c.c.c.c.c.c.c.c.c.c.c.c.c.c.c.c.c.c.c.c.c.c.c.c.c.c.c.c.c.c.c.",
"c.c.c.c.c.c.c.c.c.c.c.c.c.c.c.c.c.c.c.c.c.c.c.c.c.c.c.c.c.c.c.c.c.c.c.c.c.c.c.c.c.c.c.c.c.c.c.c.c.c.c.c.c.c.c.c.c.c.c.c.c.c.c.c.",
"c.c.c.c.c.c.c.c.c.c.c.c.c.c.c.c.c.c.c.c.c.c.c.c.c.c.c.c.c.c.c.c.c.c.c.c.c.c.c.c.c.c.c.c.c.c.c.c.c.c.c.c.c.c.c.c.c.c.c.c.c.c.c.c.",
"c.c.c.c.c.c.c.c.c.c.c.c.c.c.c.c.c.c.c.c.c.c.c.c.c.c.c.c.c.c.c.c.c.c.c.c.c.c.c.c.c.c.c.c.c.c.c.c.c.c.c.c.c.c.c.c.c.c.c.c.c.c.c.c.",
"c.c.c.c.c.c.c.c.c.c.c.c.c.c.c.c.c.c.c.c.c.c.c.c.c.c.c.c.c.c.c.c.c.c.c.c.c.c.c.c.c.c.c.c.c.c.c.c.c.c.c.c.c.c.c.c.c.c.c.c.c.c.c.c.",
"c.c.c.c.c.c.c.c.c.c.c.c.c.c.c.c.c.c.c.c.c.c.c.c.c.c.c.c.c.c.c.c.c.c.c.c.c.c.c.c.c.c.c.c.c.c.c.c.c.c.c.L { l.c.c.c.c.c.c.c.c.c.c.",
"c.c.c.c.c.c.c.c.c.c.c.c.c.c.c.c.c.c.c.c.c.c.c.c.c.c.c.c.c.c.c.c.c.c.c.c.c.c.c.c.c.c.c.c.c.c.c.c.c.c.c.H . a d.c.c.c.c.c.c.c.c.c.",
"c.c.c.c.c.c.c.c.c.c.c.c.c.c.c.c.c.c.c.c.c.c.c.c.c.c.c.c.c.c.c.c.c.c.c.c.c.c.c.c.c.c.c.c.c.c.c.c.c.c.c.X.; 4 c z.c.c.c.c.c.c.c.c.",
"c.c.c.c.c.c.c.c.c.c.c.c.c.c.c.c.c.c.c.c.c.c.c.c.c.c.c.c.c.c.c.c.c.c.c.c.c.c.c.c.c.c.c.c.c.c.c.c.c.c.c.w.= Z # q.c.c.c.c.c.c.c.c.",
"c.c.c.c.c.c.c.c.c.c.c.c.c.c.c.c.c.c.c.c.c.c.c.c.c.c.c.c.c.c.c.c.c.k.p.q.3...} / / } X.0.e.a.l.c.c.c.c.q.= S 0 I c.c.c.c.c.c.c.c.",
"c.c.c.c.c.c.c.c.c.c.c.c.c.c.c.c.c.c.c.c.c.c.c.c.c.c.c.c.k.w.} H :     = ; ; 0 6 0 0 ; ; # + + j I 1.a...; S t j c.c.c.c.c.c.c.c.",
"c.c.c.c.c.c.c.c.c.c.c.c.c.c.c.c.c.c.c.c.c.c.c.c.c.s.X.c   @ @   - y S S Z S S S Z S Z Z Z Z h t q - . @ t Z f % c.c.c.c.c.c.c.c.",
"c.c.c.c.c.c.c.c.c.c.c.c.c.c.c.c.c.c.c.c.c.c.l.3.c @ @ & , < 2 3 $   4 y S S S S S S S S S S S S Z S Z y Z S h + c.c.c.c.c.c.c.c.",
"c.c.c.c.c.c.c.c.c.c.c.c.c.c.c.c.c.c.c.c.p.} > # $ , 2 2 2 2 2 2 2 , , @ ; u S S S S S S S S S S Z S S Z S S g # c.c.c.c.c.c.c.c.",
"c.c.c.c.c.c.c.c.c.c.c.c.c.c.c.c.c.c.q.c . # X $ 3 , < , 2 2 2 2 2 2 2 2 & X 0 S S S S S S S S S S S S S S S y # l.c.c.c.c.c.c.c.",
"c.c.c.c.c.c.c.c.c.c.c.c.c.c.c.c.r.c # q h S h y 4 # $ , 2 2 2 2 2 2 2 2 < < $ - h S S S S S S S S S S S S S Z - ^ c.c.c.c.c.c.c.",
"c.c.c.c.c.c.c.c.c.c.c.c.c.c.l.I + q Z S S S S S S S r = @ , < < 2 2 2 2 2 2 2 3 # u S S S S S S S S S S S S S h + k.c.c.c.c.c.c.",
"c.c.c.c.c.c.c.c.c.c.c.c.c.r.s - h S S S S S S S S S S S t # $ , 2 2 2 2 2 2 2 2 3 # u S S S S S S S S S S S S S = 1.c.c.c.c.c.c.",
"c.c.c.c.c.c.c.c.l.d.l.c.q.= q S S S S S S S S S S S S S S h 6 # , , 2 2 2 2 2 2 , , # u S S S S S S S S S S S S 0 ^ c.c.c.c.c.c.",
"c.c.c.c.c.c.c.p.a   : I   y S S S S S S S S S S S S S S S S Z y @ , 2 2 2 2 2 < , < 3 # g S S S S S S S S S S S w J c.c.c.c.c.c.",
"c.c.c.c.c.c.c.d q h 0 # u S S S S S S S S S S S S S S S S S S S u # & < 2 2 2 2 2 2 2 & - S S S S S S S S S S S q U c.c.c.c.c.c.",
"c.c.c.c.c.c.s.O h f + t S S S S S S S S S S S S S S S S S S S S S g % & 2 2 2 2 2 2 2 2 $ q S S S S S S S S S S ; X.c.c.c.c.c.c.",
"c.c.c.c.c.c.d.  u % q S S S S S S S S S S S S S S S S S S S S S S S g # 3 2 2 2 2 2 2 2 , @ g S S S S S S S S Z . p.c.c.c.c.c.c.",
"c.c.c.c.c.c.c.x = = S S S S S S S S S S S S S S S S S S S S S S S S S u @ , 2 2 2 2 2 2 2 & 4 S S S S S S S S w x z.c.c.c.c.c.c.",
"c.c.c.c.c.c.c.4.  u S S S S S S S S S S S S S S S S S S S S S S S S S S q $ , 2 2 2 2 2 2 2 # g S S S S S S Z # 1.c.c.c.c.c.c.c.",
"c.c.c.c.c.c.c./ 4 S S S S S S S S S S S S S S S Z y 0 - # ; Z S S S S S S - 3 2 2 2 2 2 2 < & 6 S S S S S S S 6 : w.c.c.c.c.c.c.",
"c.c.c.c.c.c.x.> y S S S S S S S S S S S S S S h # 4 r u h - u S S S S S S u @ , 2 2 2 2 2 2 3 @ Z S S S S S S S r # s.c.c.c.c.c.",
"c.c.c.c.c.c.t.# h S S S S S S S S S S S S S S S Z u 0 ; S = g S S S S S S S 4 & 2 2 2 2 2 2 , $ r S S S S S S S S ; X.c.c.c.c.c.",
"c.c.c.c.c.c.q.= S S v S S S S S S S S S S S S S 0 # y u q ; S S S S S S S S u @ , < 2 2 2 2 2 3 4 S S S t t b S Z = 2.c.c.c.c.c.",
"c.c.c.c.c.l.{ ; S 4 o t S S S v S S S S S S S S q # # o 6 Z S S S S S S S S S - , 2 2 2 2 2 2 , # Z S r 7 p o ; o A z.c.c.c.c.c.",
"c.c.c.c.c.q.e = u - X r W ~ Q F S S S S S S S S S S Z Z S S S S S S S S S S S r $ , 2 2 2 2 2 2 @ g r % B.L.$.a r.z.c.c.c.c.c.c.",
"c.c.c.c.c.a.J X q Z D 9.#.n ! 9.W S S S S S S S S S S S S S S S S S S S S S S h @ 1 2 2 2 2 2 2 $ - 7 B.P.P.J.C e.z.c.c.c.c.c.c.",
"c.c.c.c.c.f.[ X 4 D 9.h.9.5 X E h.W y 6 u S S S S S S S S S S S S S S S S S S S = , < 2 2 2 2 2 & m D.P.K.P.P.j.} c.c.c.c.c.c.c.",
"c.c.c.c.c.c.x.: y 5.8.~ 6.5 E g.h.9.; . 4 S S S S S S S S S S S S S S S S S S S 0 & 2 2 2 2 2 2 & ;.P.L.O.J.P.$.X.c.c.c.c.c.c.c.",
"c.c.c.c.c.c.r.X q h.9.G v v ! h.h.h.K ; y S S S S S S S S S S S S S S S S g S S r $ 2 2 2 2 2 2 & &.P.J.O.J.b.d l.c.c.c.c.c.c.c.",
"c.c.c.c.c.c.4.R % 5.h.h.h.8.7 T 5.h. .S y u S S S S S S S S S S S S S S S 4 q S y $ 2 2 2 2 2 2 & &.P.j.>.B.s d.c.c.c.c.c.c.c.c.",
"c.c.c.c.c.c.t.m *.a 9.h.h.h.g.| 5.h.5.S q = ; S S S S S S S S S S S S S S y @ g 0 @ , 2 2 2 2 2 & *.N.%.H.B.J c.c.c.c.c.c.c.c.c.",
"c.c.c.c.c.c.f.7 S.) k 8.h.h.h.h.h.h.7.w ; y Z S S S S S S S S S S S S S S S #   N @ 2 2 2 2 2 2 & :.L.H.G.P 4.c.c.c.c.c.c.c.c.c.",
"c.c.c.c.c.c.X.*.P.L.o.5 @.h.h.h.h.h.7.S y - r S S S S S S S S u Z S S S S S ; :.G.@ 2 2 2 2 2 2 $ v.P.` e ..c.c.c.c.c.c.c.c.c.c.",
"c.c.c.c.c.c.} i.P.P.P.b.i v @.g.h.h.5.S S S S S S S S S S S S 6 ; S S S S S * n.D.@ 2 2 2 2 2 2 $ V.K.l d.c.c.c.c.c.c.c.c.c.c.c.",
"c.c.c.c.c.c.r.V L.P.P.P.J.:.i 9 T @.! Z S S S S S S S S h u q =   4 S S S u * G.S.$ 2 2 2 2 2 2 @ B._ U c.c.c.c.c.c.c.c.c.c.c.c.",
"c.c.c.c.c.c.c.Y B C.P.S.n.K.G.` R l   O = - ; 0 6 4 ; % . 7 _ v.Z.M = w 0 # u.P.B.$ 2 2 2 2 2 3 + s ..l.c.c.c.c.c.c.c.c.c.c.c.c.",
"c.c.c.c.c.c.c.c.U j.P.J.>.O.O.>.J.P.K.S.M.v.:.;.;.:.j.N.F.P.P.P.P.K.<.( ) B.P.P.i.$ 3 2 2 2 & a p.c.c.c.c.c.c.c.c.c.c.c.c.c.c.c.",
"c.c.c.c.c.c.c.c./ b.P.P.P.H.J.P.P.P.P.P.P.P.P.P.P.P.P.G.D.P.P.P.P.H.P.P.D.u.m.y.m $ 3 2 3 $ L l.c.c.c.c.c.c.c.c.c.c.c.c.c.c.c.c.",
"c.c.c.c.c.c.c.c.e.V J.P.P.P.P.P.P.u.Z.P.P.P.P.D.=.B.M.$.C.P.P.P.A.=.P.P.K.B.m.V.8 , & $ j e.c.c.c.c.c.c.c.c.c.c.c.c.c.c.c.c.c.c.",
"c.c.c.c.c.c.c.c.c.} 9 ] <.P.P.P.P.M.y.P.P.P.P.P.C.u.j.A.P.P.P.J.>.n.P.P.P.P.P.S.  @ c 0.z.c.c.c.c.c.c.c.c.c.c.c.c.c.c.c.c.c.c.c.",
"c.c.c.c.c.c.c.c.c.c.k.q.= J.P.P.P.K.-.%.H.P.P.P.P.P.P.P.P.P.P.y.u.L.P.P.P.,.l 8 } p.c.c.c.c.c.c.c.c.c.c.c.c.c.c.c.c.c.c.c.c.c.c.",
"c.c.c.c.c.c.c.c.c.c.c.c.[ ' L.P.P.P.L.S.L.P.P.P.P.P.P.P.P.P.P.P.P.P.,.b.B.z w.l.c.c.c.c.c.c.c.c.c.c.c.c.c.c.c.c.c.c.c.c.c.c.c.c.",
"c.c.c.c.c.c.c.c.c.c.c.c.x.^ i V i.P.P.H.P.P.P.P.P.P.P.R =.H.D.i ' +.a I L q.c.c.c.c.c.c.c.c.c.c.c.c.c.c.c.c.c.c.c.c.c.c.c.c.c.c.",
"c.c.c.c.c.c.c.c.c.c.c.c.c.c.k.t.s ] R * <.S.<.p j.N.$.c / 7 e 3.w.q.l.c.c.c.c.c.c.c.c.c.c.c.c.c.c.c.c.c.c.c.c.c.c.c.c.c.c.c.c.c.",
"c.c.c.c.c.c.c.c.c.c.c.c.c.c.c.c.l.q.w.s.Y H Y e.Y J X.l.c.c.c.c.c.c.c.c.c.c.c.c.c.c.c.c.c.c.c.c.c.c.c.c.c.c.c.c.c.c.c.c.c.c.c.c.",
"c.c.c.c.c.c.c.c.c.c.c.c.c.c.c.c.c.c.c.c.c.c.c.c.c.c.c.c.c.c.c.c.c.c.c.c.c.c.c.c.c.c.c.c.c.c.c.c.c.c.c.c.c.c.c.c.c.c.c.c.c.c.c.c.",
"c.c.c.c.c.c.c.c.c.c.c.c.c.c.c.c.c.c.c.c.c.c.c.c.c.c.c.c.c.c.c.c.c.c.c.c.c.c.c.c.c.c.c.c.c.c.c.c.c.c.c.c.c.c.c.c.c.c.c.c.c.c.c.c.",
"c.c.c.c.c.c.c.c.c.c.c.c.c.c.c.c.c.c.c.c.c.c.c.c.c.c.c.c.c.c.c.c.c.c.c.c.c.c.c.c.c.c.c.c.c.c.c.c.c.c.c.c.c.c.c.c.c.c.c.c.c.c.c.c.",
"c.c.c.c.c.c.c.c.c.c.c.c.c.c.c.c.c.c.c.c.c.c.c.c.c.c.c.c.c.c.c.c.c.c.c.c.c.c.c.c.c.c.c.c.c.c.c.c.c.c.c.c.c.c.c.c.c.c.c.c.c.c.c.c.",
"c.c.c.c.c.c.c.c.c.c.c.c.c.c.c.c.c.c.c.c.c.c.c.c.c.c.c.c.c.c.c.c.c.c.c.c.c.c.c.c.c.c.c.c.c.c.c.c.c.c.c.c.c.c.c.c.c.c.c.c.c.c.c.c.",
"c.c.c.c.c.c.c.c.c.c.c.c.c.c.c.c.c.c.c.c.c.c.c.c.c.c.c.c.c.c.c.c.c.c.c.c.c.c.c.c.c.c.c.c.c.c.c.c.c.c.c.c.c.c.c.c.c.c.c.c.c.c.c.c.",
"c.c.c.c.c.c.c.c.c.c.c.c.c.c.c.c.c.c.c.c.c.c.c.c.c.c.c.c.c.c.c.c.c.c.c.c.c.c.c.c.c.c.c.c.c.c.c.c.c.c.c.c.c.c.c.c.c.c.c.c.c.c.c.c.",
"c.c.c.c.c.c.c.c.c.c.c.c.c.c.c.c.c.c.c.c.c.c.c.c.c.c.c.c.c.c.c.c.c.c.c.c.c.c.c.c.c.c.c.c.c.c.c.c.c.c.c.c.c.c.c.c.c.c.c.c.c.c.c.c.",
"c.c.c.c.c.c.c.c.c.c.c.c.c.c.c.c.c.c.c.c.c.c.c.c.c.c.c.c.c.c.c.c.c.c.c.c.c.c.c.c.c.c.c.c.c.c.c.c.c.c.c.c.c.c.c.c.c.c.c.c.c.c.c.c."
};
