/* XPM */
static char *_846637885f84549cd5f1d4ee10591e3xSJjeW03xjHiO1dw[] = {
/* columns rows colors chars-per-pixel */
"64 64 217 2 ",
"   c #060302",
".  c #1E110B",
"X  c #151313",
"o  c #1C1C1C",
"O  c #2E130B",
"+  c #381C0B",
"@  c #211F1D",
"#  c #29231E",
"$  c #36261E",
"%  c #272627",
"&  c #2C2C2C",
"*  c #372B25",
"=  c #3F3023",
"-  c #3B312D",
";  c #2F3030",
":  c #313131",
">  c #3B3B3B",
",  c #481E0E",
"<  c #461F10",
"1  c #45230E",
"2  c #4B250E",
"3  c #582B0F",
"4  c #4C2714",
"5  c #542414",
"6  c #552A11",
"7  c #5C2E11",
"8  c #622F15",
"9  c #742F13",
"0  c #643114",
"q  c #793917",
"w  c #7A341B",
"e  c #493729",
"r  c #553B26",
"t  c #443B38",
"y  c #663A21",
"u  c #6F3E2D",
"i  c #5C442E",
"p  c #554436",
"a  c #6E4634",
"s  c #644A31",
"d  c #684B36",
"f  c #6C5139",
"g  c #725539",
"h  c #74573A",
"j  c #7B5B3D",
"k  c #444443",
"l  c #494844",
"z  c #4B4B4B",
"x  c #5B4C45",
"c  c #545454",
"v  c #5C5855",
"b  c #5A5A5A",
"n  c #684F45",
"m  c #695547",
"M  c #785947",
"N  c #635A58",
"B  c #7C624A",
"V  c #6C625D",
"C  c #636363",
"Z  c #6A6A6A",
"A  c #736C6B",
"S  c #737373",
"D  c #797675",
"F  c #7A7A7A",
"G  c #833F17",
"H  c #813D1A",
"J  c #8D3B1B",
"K  c #963B18",
"L  c #864117",
"P  c #864119",
"I  c #9B421B",
"U  c #A3451C",
"Y  c #AA481E",
"T  c #B64C1E",
"R  c #974A2B",
"E  c #83583A",
"W  c #915033",
"Q  c #B54C22",
"!  c #AC5231",
"~  c #C9531F",
"^  c #F96B0E",
"/  c #F8711D",
"(  c #C45321",
")  c #CB5421",
"_  c #D45824",
"`  c #DB5B25",
"'  c #C95E38",
"]  c #E45F25",
"[  c #E95F27",
"{  c #E35E28",
"}  c #E76025",
"|  c #E86024",
" . c #E9672B",
".. c #F87425",
"X. c #F8792C",
"o. c #F87C33",
"O. c #915E4E",
"+. c #836242",
"@. c #8B6846",
"#. c #926B47",
"$. c #986B47",
"%. c #956E4A",
"&. c #97734E",
"*. c #9C734C",
"=. c #926257",
"-. c #9B7551",
";. c #A1774F",
":. c #A3784F",
">. c #A57A51",
",. c #A17955",
"<. c #AA7E54",
"1. c #957871",
"2. c #D66B4B",
"3. c #E9734C",
"4. c #E97D5F",
"5. c #F9833D",
"6. c #AE8156",
"7. c #B28357",
"8. c #B58559",
"9. c #B8885B",
"0. c #BB8B5C",
"q. c #958275",
"w. c #BC8E62",
"e. c #AC8A76",
"r. c #C08D5E",
"t. c #C18E5E",
"y. c #C2905F",
"u. c #F78B49",
"i. c #F7914E",
"p. c #EE8359",
"a. c #F38652",
"s. c #F69453",
"d. c #F69A5B",
"f. c #C28F60",
"g. c #C39160",
"h. c #C59261",
"j. c #C69262",
"k. c #C99563",
"l. c #CA9563",
"z. c #CA9663",
"x. c #CB9664",
"c. c #CC9765",
"v. c #CE9965",
"b. c #CF9968",
"n. c #D29B67",
"m. c #D59D68",
"M. c #D89F6A",
"N. c #C08B7C",
"B. c #E78364",
"V. c #F49866",
"C. c #F19371",
"Z. c #D7A06A",
"A. c #DBA26B",
"S. c #D9A371",
"D. c #E0A46E",
"F. c #F4A265",
"G. c #F5A669",
"H. c #F5AB6D",
"J. c #E7A777",
"K. c #F5AE71",
"L. c #F6B275",
"P. c #838282",
"I. c #8C8A89",
"U. c #968C86",
"Y. c #999797",
"T. c #A8948C",
"R. c #A79992",
"E. c #A3A09F",
"W. c #9E9FA0",
"Q. c #A4A3A3",
"!. c #A9A7A6",
"~. c #ACABAB",
"^. c #B3AFAB",
"/. c #B4B4B3",
"(. c #BAB8B6",
"). c #BCBCBC",
"_. c #CF9B8D",
"`. c #EC9C86",
"'. c #D8A68B",
"]. c #C5A39A",
"[. c #E9A78B",
"{. c #EEA996",
"}. c #F1B09B",
"|. c #D1B8AD",
" X c #EFB5A5",
".X c #F1BAAE",
"XX c #DAC8BB",
"oX c #E7CAB7",
"OX c #F2C5B8",
"+X c #C5C4C4",
"@X c #C6C8C7",
"#X c #CACACA",
"$X c #D1CECD",
"%X c #D6D2CE",
"&X c #D4D4D3",
"*X c #DAD8D7",
"=X c #DCDCDC",
"-X c #E8CDC5",
";X c #F0CEC3",
":X c #EBD7CD",
">X c #F4D9CB",
",X c #E5DDD8",
"<X c #F4DCD4",
"1X c #EEE2DC",
"2X c #DFDFE0",
"3X c #E4E4E4",
"4X c #EBE7E5",
"5X c #E7E8E7",
"6X c #EBE9E6",
"7X c #ECEBEB",
"8X c #F5EBE7",
"9X c #EFF0EF",
"0X c #F0F0EE",
"qX c #F9F3EE",
"wX c #F3F3F3",
"eX c #FAF7F2",
"rX c #FAFBFA",
/* pixels */
"#.%.%.%.&.*.*.*.;.;.;.:.>.>.>.<.>.6.>.6.>.6.6.6.6.6.6.7.7.7.7.7.7.7.8.6.6.6.6.6.6.<.<.<.<.<.<.<.>.>.>.>.:.;.;.*.;.*.*.%.%.%.%.#.",
"%.%.%.&.*.*.;.;.;.;.>.>.>.>.<.<.>.<.7.6.7.7.7.7.7.7.7.7.7.8.7.7.7.7.7.8.7.7.7.8.7.7.7.6.6.6.<.<.<.<.>.>.>.>.;.;.;.;.*.*.*.%.%.%.",
"%.$.&.*.*.:.*.:.>.>.>.>.<.<.<.<.7.<.7.7.7.7.7.7.8.8.8.8.8.8.9.7.9.8.8.7.8.8.8.8.8.8.7.7.7.<.7.<.6.<.>.<.>.>.>.:.;.;.;.*.*.*.%.%.",
"&.*.*.;.;.:.:.>.>.>.<.<.<.6.6.6.7.7.7.8.7.8.9.8.8.8.9.8.9.9.9.9.9.9.9.9.8.9.8.8.8.8.8.7.8.7.7.7.6.6.6.<.<.>.<.>.:.:.;.;.*.;.*.%.",
"*.*.;.:.:.:.>.<.<.<.<.<.6.7.7.7.8.8.8.8.8.9.9.9.0.0.0.0.0.9.9.0.0.0.0.0.9.9.0.0.0.9.8.8.8.8.8.7.7.7.7.6.<.<.<.<.<.:.:.:.;.;.*.*.",
"*.;.:.:.:.>.>.<.<.<.7.7.7.7.8.7.8.9.8.9.9.0.9.0.9.0.0.0.0.0.r.0.0.0.0.0.0.0.0.0.0.0.0.9.0.9.8.8.8.8.7.7.7.7.<.<.<.<.>.:.;.;.;.*.",
";.;.:.:.>.<.<.<.<.7.7.7.8.8.8.8.9.9.0.0.0.0.0.0.0.0.h.r.r.r.r.r.r.r.r.r.r.0.0.0.0.0.0.0.0.9.0.8.8.8.8.8.7.7.7.<.<.<.>.>.:.;.;.;.",
";.:.:.>.<.<.<.6.<.8.7.8.8.8.9.0.0.9.0.0.0.r.r.r.f.r.r.h.r.g.y.y.y.y.y.f.g.g.r.y.r.r.0.0.0.0.0.0.9.8.9.8.7.7.7.7.<.<.<.<.<.:.:.;.",
":.:.>.>.6.<.7.7.8.8.8.9.9.9.0.0.0.0.0.r.r.r.r.h.w.h.w.h.h.h.h.h.y.y.l.y.h.y.y.g.y.w.y.w.r.r.0.0.0.0.9.9.8.8.8.8.<.<.<.<.<.<.<.;.",
">.>.6.6.6.6.7.7.8.9.9.9.9.0.0.0.f.f.f.r.r.h.h.h.f.k.h.h.h.h.h.h.y.l.h.l.h.h.h.h.h.h.y.y.r.r.r.r.0.0.0.9.9.9.8.8.8.8.<.<.<.<.<.<.",
">.6.>.6.6.7.8.8.9.9.0.0.0.0.r.r.f.f.h.h.h.h.k.h.l.l.l.h.l.l.l.l.l.l.l.l.l.l.h.j.l.l.y.y.r.f.y.y.r.y.y.0.0.9.9.9.8.8.<.8.<.<.<.>.",
">.6.6.7.7.8.8.9.9.9.0.0.0.r.r.r.,.T.R.q.<.x.h.l.9.6.6.l.c.x.x.l.l.c.c.l.l.l.l.l.l.y.l.l.k.h.h.y.y.r.r.0.0.0.9.9.8.8.9.<.<.<.<.<.",
"6.6.6.7.7.8.9.9.0.0.r.r.r.y.y.h.T.V f Q.$XU.#.! T _ ( T ! ,.l.v.n.w.r.x.b.v.v.v.l.l.l.y.l.l.h.y.y.y.y.y.r.0.0.0.8.8.r.6.8.8.<.<.",
"6.7.7.8.9.9.9.0.0.0.r.r.h.h.h.h.^.n 8 I =.e.} | | | | | | _ R V ^.).~.!.q.:.*.6.l.v.l.v.l.y.l.y.y.y.y.y.r.r.0.0.r.r.7.8.8.<.8.<.",
"7.7.7.7.0.0.0.0.0.y.r.y.r.k.h.k./.A 0 Y | | | | | } } } | | [ T.I.8 0 x U.q P q y *.l.v.n.l.l.l.l.l.y.y.y.y.r.r.r.9.9.9.r.<.8.<.",
"7.7.7.9.0.0.0.w.0.y.f.k.h.h.l.c.R.W.w | | | | | | } } } | | | ] U w 4 D q.P P P L q r ,.v.v.l.l.l.y.l.l.y.y.r.r.r.9.9.9.9.9.8.8.",
"7.0.7.0.0.0.0.y.y.j.j.y.l.l.z.c.-.W.Q } }  X>X4.| | | | | | [ | Q 5 6 Q.m L L L L L H 6 E l.v.l.v.l.l.l.r.h.g.y.r.r.0.0.0.8.8.7.",
"7.0.0.0.0.y.y.y.j.y.j.j.z.l.v.v.+.a ` | } [.<X{.| | | | OXqX[.} ) w N Q.q L L L L L P q 1 r 0.b.v.l.l.l.l.k.l.y.y.r.r.0.0.0.9.8.",
"7.0.0.0.r.y.y.y.j.j.l.l.z.b.v.v.E Q |  .) 9 ) [ | | | | `..X3.} ~ H P.u P P L L L L L L 8 2 e g.v.v.l.y.l.h.l.h.h.f.9.0.0.0.0.8.",
"0.0.0.0.r.y.y.y.j.l.l.l.v.v.v.v.&.R | | < I.W | | | | | U 5 _ } ) Q 5 6 L P L G L L L L L + 8 W v.n.n.n.l.l.l.h.h.h.h.r.0.0.0.8.",
"0.0.r.r.y.y.c.y.l.l.l.l.v.v.b.b.+.Q 3.2.  (.! [ [ [ } ] !.C K [ ( U w 9 P L L H L J O.P P 0 R Q $.n.v.n.l.l.l.l.y.y.h.r.r.r.0.0.",
"0.0.r.r.y.y.l.l.l.l.v.b.n.v.m.b.u B.wX<X< , _  X8X8X`.` P.k J [ T U O 6 7 2 4 e A Y.&X0X|.1.K Y $ t.n.n.v.v.l.l.z.z.h.y.r.r.0.0.",
"0.r.r.y.h.y.l.l.l.v.v.v.n.Z.m.x.$.].rXOX{ { .XrXwXrXeX4.H   ].-X! Y 5 - k c z /.3XeX0X0XrX3X1.n 2 E m.n.b.v.v.l.z.l.r.h.y.r.0.0.",
"0.r.y.h.k.h.l.l.b.v.v.n.Z.n.Z.m.B t +X;X[ 3.rXrX/.=XrXOX[ _ OX=XN.U - b b b 3X9X5XwXwX6XwX7X7XQ.2 + y.m.n.n.v.l.l.l.l.k.y.r.r.r.",
"r.r.y.l.x.l.l.v.v.v.m.m.n.Z.Z.%.l 1 4 I.' B.rX&X+X#XrX<X[ [ -X@XO.5 * b v #X7X2X7XrXwX3XwX5X7X7X~.w *.m.m.n.n.v.z.l.l.y.y.y.r.0.",
"r.r.h.y.r.l.l.v.n.n.n.m.Z.Z.0.z - 7 7 7 5 J |.3XR.6XrX}.] _.Q.v 3 8 * z /.5X5X2X7X3X5XwX=X5X5XwX%XI g.M.m.n.n.n.n.z.l.l.l.y.h.r.",
"y.h.h.x.l.l.v.v.n.n.m.m.Z.Z.m c 1 7 7 7 e S C P.Y.Q.1.J a v $ 7 7 7 * % 5XrXwX3XwX5X9XwX2X3XwX=X3X=.8.m.m.n.n.n.v.v.l.l.h.h.h.r.",
"y.y.h.l.x.v.v.n.n.m.Z.m.m.8.c z 4 0 7 6 C F D Z b c c v v c 2 7 7 3 . Q.7X9X5X3X0X=XwX5X9X7XrXwX7XV :.A.m.m.n.m.n.x.c.l.l.h.h.y.",
"h.h.k.k.x.b.v.n.n.M.m.Z.A.B b c 2 3 7 e F Z b b b b b b b z 6 7 7 6 C 3XrX7X(.5X7X7X3X7X5XrX2X3X5X!.;.Z.m.A.m.n.n.v.v.l.l.h.h.g.",
"h.h.k.k.c.c.n.n.n.m.Z.A.m.p b C t 6 7 b b b b b b b b b b > 7 8 8 O Q.9X=XrX%X9X,X ./ {.9X&X5X3XrX@X;.Z.Z.Z.m.m.n.v.b.x.l.h.h.h.",
"h.l.k.v.c.b.n.n.Z.Z.A.A.8.c b S D c z b b b b b b b b b c : 5 6 1 > rX3X5X5X7X3X1X^ 5.d.J.,X7XeX5X*Xe.D.A.Z.m.M.m.n.v.l.k.l.l.h.",
"h.l.k.k.b.b.n.m.n.Z.Z.A.-.b b F F F Z b b b b b b b c k ; & % # & I.5X7X7X4XwX3X|.K.G.u.^ C.9X7XwX7XXXD.A.Z.A.n.n.n.b.b.b.l.h.h.",
"h.l.l.l.v.n.n.m.Z.Z.A.A.B b b F F S b b b b b b b k : : : : : : : Q.7X7X7X3X2X,XK.u.^ ..i.F.4XrX5X5X3XM.A.A.A.M.m.m.n.l.l.l.h.h.",
"h.l.l.v.v.n.n.m.Z.Z.A.A.z b b F F C b b b b b z : : : : : : : : ; #XwXrX2X3X3X:X..X.V.K.i./ :X3X5X3X*XZ.A.A.M.m.m.n.n.b.v.l.c.h.",
"l.l.x.v.n.n.m.M.Z.Z.A.A.l b b Z C b b b b c k ; : : : : : : : : & F wX3X3X9X9X_.i.L.s./ / d.:X,X7X9X4Xm.A.A.M.A.m.m.n.n.n.l.l.h.",
"y.l.v.v.v.n.m.m.Z.Z.A.Z.k b b b b b b b c : : : : : : : : : : : % ).rX5X3X9X7X[.K.5.^ 5.H.5.V.4XwX5X=Xb.A.A.A.M.m.m.m.c.v.c.l.k.",
"l.l.n.v.n.n.m.Z.A.A.A.v.z b b b b b b k : : : : : : : : : : : : % @X7XwX=X3X5XoX..^ i.K.X.^ }.wXrX3X(.x.A.M.A.M.Z.n.n.n.b.l.l.l.",
"l.l.x.v.n.n.m.M.Z.A.A.l.z b b b b b k ; : : : : : : : : : : : : & 3X7XwX2XwX=X[.^ i.K.X.^ o.J.7X7X3X*Xf.D.D.A.M.Z.Z.n.v.v.x.l.l.",
"l.l.v.v.n.m.A.Z.A.A.D.n.z b b b c > ; ; : : : : : : : : : : : : > =X5X2X3X9X*XC.5.L.5.^ s.F.a.6XwXrX5Xx.A.M.A.M.Z.m.m.n.n.l.l.l.",
"l.x.b.v.n.m.m.Z.Z.A.A.m.k b b c > : : ; : : : : : : : : : : : : & 2X5X3X5X5X5X-XH.i.^ d.G./ OX7X7X5X$Xx.D.D.A.M.Z.Z.n.n.b.b.l.r.",
"l.l.v.n.n.m.m.A.A.A.A.A.l b b > ; ; : : : : : : : : : : : : : : & =X3X9X9X3XwXXXF.^ u.L.X.X.[.,XrX7X7X'.D.A.A.A.A.n.Z.n.y.y.n.y.",
"l.l.l.n.n.n.m.Z.A.A.A.D.m b > : : : : : : : : : : : : : : : : : ; ~.wXwX=X=X7XOX..^ K.s.^ s.a.wX7X3X3XA.D.A.A.Z.Z.Z.n.n.Z.n.v.v.",
"r.l.n.v.n.n.Z.Z.A.A.A.D.&.k ; : : : : : : : : : : : : : : : : ; % P.5X7X3X3X7X$Xp.u.L...^ >X,XwX=X0X$XA.D.A.A.Z.Z.m.n.n.n.v.y.v.",
"l.l.b.b.n.n.m.m.A.A.A.A.6.& ; ; : : : : : : : : : : : : : : ; % % X ).rX=X5X,X9X7XoXV.^ C.6X7XwX0XrXXXD.D.A.A.A.Z.m.n.n.v.n.n.y.",
"l.v.v.n.n.m.m.A.Z.A.A.D.c.& : : : : : : : : : : : : : : : : % % % % ~.9X3X3X2X7X%X9X:X{.4X0X7XwX6X=Xw.A.A.A.A.A.A.m.n.n.v.l.l.l.",
"y.y.l.v.n.n.m.m.Z.A.A.D.A.p : : : : ; : : : : : : : : : & % % % % % o 7XrXwX5X2X7X9X5X9X0X5XwXwXwXQ.Z.S.D.A.A.Z.m.m.n.v.v.l.l.y.",
"y.n.v.v.v.n.m.m.Z.Z.A.A.A.<.; : : : : : : : : : ; ; ; & % % % % % % z 3X9XwX7X9X3X*X2X*X*X5X7X5X^.B D.S.A.A.A.M.m.n.n.n.v.l.l.y.",
"y.y.v.y.v.n.n.n.Z.Z.A.A.A.m.- : : : : : : : : : ; & % % % % & % % % % W.wX9X9X5X&X7XwX3X0XwX5XwX@Xh.A.A.A.M.M.M.m.n.v.n.l.v.v.y.",
"l.c.y.n.v.n.v.m.n.M.A.A.A.D.:.& ; ; ; ; ; ; & % % % % % % % % % % % % o @XwX7XwXrX2X7XwX&X9X&XXXj A.A.A.A.Z.Z.n.A.n.y.n.n.n.y.y.",
"y.h.y.l.z.v.v.n.n.M.M.A.M.A.A.f & & & & & % % % % % & % % % % % % % % % S #XwX5X3X=X7X9X3XrXrX#Xw.Z.A.A.Z.Z.Z.n.n.n.n.n.y.y.l.y.",
"y.l.l.l.l.l.z.n.n.m.M.M.A.Z.A.b.p % % # % % % % % % % % % % % % % % % % o P.&X6XwX5X7X5X3X&X(.q.@.%.6.9.v.Z.m.n.n.n.v.y.l.l.y.y.",
"r.y.y.y.l.z.v.n.n.n.m.m.Z.Z.Z.m.#.* # # % % % % % % % % % % % % % % % % % o z /.=XwX2X9X&XI.i s i s s g *.y.v.A.v.r.y.n.y.y.y.y.",
"r.r.y.l.h.z.z.v.v.n.n.m.m.Z.A.m.7.#.E f i i e e = = $ $ # # # o o o o o o o X   k I.S Y.i i s s d g j #.7.v.v.v.l.l.l.l.l.y.y.y.",
"r.y.y.y.k.z.z.z.v.v.n.n.m.m.M.M.m.n.y.9.6.:.*.#.@.+.+.j j g h h h h g g g g g h M g j B +.#.*.;.6.8.y.y.v.Z.n.n.l.l.l.l.y.y.r.0.",
"9.r.r.r.y.k.l.z.l.v.b.b.n.m.m.M.Z.A.A.A.A.Z.M.m.n.Z.l.v.l.l.y.g.y.y.0.w.y.y.y.y.v.y.y.n.v.n.n.M.Z.Z.n.n.v.v.v.v.l.l.h.y.y.r.0.0.",
"9.0.r.r.y.h.h.l.l.l.b.b.n.n.m.m.m.Z.Z.Z.A.A.D.A.S.A.A.A.A.A.A.D.A.D.D.A.D.D.A.D.A.A.A.A.M.D.M.M.Z.n.n.v.v.v.l.y.l.y.l.y.r.r.0.0.",
"8.0.0.0.r.h.y.z.l.l.l.v.v.v.n.m.m.m.Z.m.M.M.A.A.A.A.A.A.A.D.A.D.A.A.A.A.A.A.A.A.A.M.M.M.M.m.n.n.n.n.v.n.v.v.v.n.j.j.j.r.r.0.0.0.",
"8.0.0.0.r.r.h.y.y.l.l.l.v.v.b.n.n.n.n.A.M.M.Z.Z.A.A.A.A.A.A.A.A.D.A.A.A.A.A.A.A.M.M.M.M.m.m.n.n.n.n.v.n.y.v.y.y.j.y.r.r.0.0.0.8.",
"8.9.0.0.0.r.y.y.h.z.z.l.l.l.v.v.n.n.n.n.n.M.M.M.Z.Z.Z.Z.A.A.A.Z.A.A.A.Z.Z.Z.A.A.M.M.M.n.m.n.n.n.v.v.v.y.v.y.y.y.y.r.r.0.0.9.8.8.",
"8.8.9.0.0.0.r.r.y.y.k.l.l.l.l.v.v.n.n.n.n.m.n.m.m.Z.Z.Z.Z.Z.Z.Z.A.Z.Z.Z.Z.Z.Z.Z.M.m.n.n.n.n.n.v.v.z.v.v.y.v.y.y.r.r.0.0.9.8.8.7.",
"7.7.7.8.9.0.0.r.r.y.h.l.h.l.l.l.z.v.v.n.n.n.n.n.n.A.n.m.m.m.m.m.m.m.m.Z.n.m.n.Z.n.n.n.n.v.v.v.l.y.z.z.y.y.y.y.y.y.0.0.9.9.8.7.7.",
"7.7.7.8.9.9.0.0.r.r.r.y.y.z.r.l.l.v.z.v.l.l.n.n.n.n.n.n.n.n.m.m.m.m.n.n.n.m.n.v.n.m.v.z.v.v.z.l.z.z.z.y.y.y.y.t.9.0.9.9.8.8.7.6.",
"6.6.7.7.8.8.0.0.9.0.r.j.y.h.h.l.v.l.l.l.l.v.v.v.n.n.n.n.b.v.n.n.n.n.v.n.n.b.v.v.c.c.l.l.l.l.v.l.z.y.y.y.y.r.r.0.9.9.8.8.8.7.6.6.",
":.6.6.7.7.8.8.0.0.0.0.r.r.r.y.h.y.y.j.j.l.l.v.n.y.y.n.l.v.v.v.v.v.v.v.v.v.v.l.v.z.l.l.l.l.l.y.z.y.y.y.t.r.0.9.0.9.9.8.7.7.6.6.:."
};
