/* XPM */
static char *_a9b6d11de79493addf9c45546f07fd1aJl1QLVwjHcOxpoj[] = {
/* columns rows colors chars-per-pixel */
"64 64 164 2 ",
"   c black",
".  c #0E0E0F",
"X  c #141415",
"o  c #3D4B5D",
"O  c #3E4F63",
"+  c #434E5E",
"@  c #4A515B",
"#  c #425163",
"$  c #4E5665",
"%  c #44566C",
"&  c #48596D",
"*  c #4C5D73",
"=  c #5C616F",
"-  c #4F6075",
";  c #506076",
":  c #54657A",
">  c #56687D",
",  c #69686F",
"<  c #666976",
"1  c #6A6974",
"2  c #6B6D7A",
"3  c #726D77",
"4  c #747071",
"5  c #73727D",
"6  c #897E74",
"7  c #5D6D83",
"8  c #786A85",
"9  c #66768B",
"0  c #67788D",
"q  c #747582",
"w  c #797784",
"e  c #7B7A85",
"r  c #7D708A",
"t  c #7E7E89",
"y  c #6D7D92",
"u  c #817E89",
"i  c #847792",
"p  c #718196",
"a  c #75849A",
"s  c #7A8A9E",
"d  c #7F8FA4",
"f  c #8C8286",
"g  c #84828D",
"h  c #8C848D",
"j  c #978B87",
"k  c #9A908E",
"l  c #868491",
"z  c #898593",
"x  c #8D8B96",
"c  c #8D8B99",
"v  c #938B93",
"b  c #998E95",
"n  c #928E9B",
"m  c #9C9197",
"M  c #94929D",
"N  c #9B949C",
"B  c #A49383",
"V  c #AD9983",
"C  c #AF9D8E",
"Z  c #B39E8A",
"A  c #A09195",
"S  c #A99E97",
"D  c #A09499",
"F  c #A69A9E",
"G  c #AC9B9D",
"H  c #BBA48D",
"J  c #B5A396",
"K  c #BAA693",
"L  c #BFA890",
"P  c #B6A89D",
"I  c #938FA0",
"U  c #9491A1",
"Y  c #9996A4",
"T  c #9C99A6",
"R  c #9E9BA9",
"E  c #8E9EB4",
"W  c #909FB6",
"Q  c #A69CA4",
"!  c #AA9EA1",
"~  c #A19EAC",
"^  c #A39FB1",
"/  c #94A4B9",
"(  c #99A9BE",
")  c #AEA1A4",
"_  c #A4A1AE",
"`  c #AAA3AC",
"'  c #B2A2A4",
"]  c #B7A8A5",
"[  c #B9A7A8",
"{  c #B5A8AC",
"}  c #BDACAC",
"|  c #BFB1A2",
" . c #A5A3B0",
".. c #A9A5B3",
"X. c #ADA9B5",
"o. c #ABA7B9",
"O. c #AEAABB",
"+. c #BBADB5",
"@. c #B0ADBD",
"#. c #B4B3B3",
"$. c #BEB0B4",
"%. c #B4B2BF",
"&. c #C5AC92",
"*. c #C2AD9B",
"=. c #C7B19A",
"-. c #CDB59E",
";. c #D5BA9D",
":. c #C1AEAE",
">. c #C6B6A7",
",. c #D5BDA2",
"<. c #D9BFA3",
"1. c #C4B2B2",
"2. c #CAB6B5",
"3. c #CDBAB7",
"4. c #CDBAB9",
"5. c #D3BEBD",
"6. c #D9C1A6",
"7. c #D6C1A8",
"8. c #DCC5AB",
"9. c #DFC8AF",
"0. c #CBC1B4",
"q. c #D6C1BF",
"w. c #DFCFBE",
"e. c #E0C9AF",
"r. c #E3CCB4",
"t. c #E4CFB9",
"y. c #E5D1BB",
"u. c #E8D4BE",
"i. c #9DADC3",
"p. c #B4AEC1",
"a. c #B5B2C2",
"s. c #B9B4C6",
"d. c #BBB9C6",
"f. c #BBB6C9",
"g. c #BEBBCB",
"h. c #C0BBC7",
"j. c #C4BFD3",
"k. c #C3C1CC",
"l. c #D7C1C0",
"z. c #DBC5C4",
"x. c #C6C3D2",
"c. c #C9C6D4",
"v. c #CBC9D7",
"b. c #CECBDA",
"n. c #E4CCCB",
"m. c #E9D6C0",
"M. c #ECDAC5",
"N. c #E8D0CF",
"B. c #EFDDC9",
"V. c #ECD4D3",
"C. c #F0D7D6",
"Z. c #F2D9D7",
"A. c #F3D9D8",
"S. c #F1E1CD",
"D. c #F5E6D3",
"F. c #F5E8D7",
"G. c #F5EADB",
"H. c #D5D2E2",
"J. c #D9D6E5",
"K. c #DBD9E7",
"L. c #EBEAE6",
"P. c #F7F0E4",
"I. c #FAF7F0",
"U. c #FCFAF7",
/* pixels */
"A.A.A.A.A.A.A.A.A.A.A.A.A.A.A.A.A.A.A.A.A.A.A.A.A.A.A.A.A.A.A.A.A.A.A.A.A.A.A.A.A.A.A.A.A.A.A.A.A.A.A.A.A.A.A.A.A.A.A.A.A.A.A.A.",
"A.A.A.A.A.A.A.A.A.A.A.A.A.A.A.A.A.A.A.A.A.A.A.A.A.A.A.A.A.A.A.A.A.A.A.A.A.A.A.A.A.A.A.A.A.A.A.A.A.A.A.A.A.A.A.A.A.A.A.A.A.A.A.A.",
"A.A.A.A.A.A.A.A.A.A.A.A.A.A.A.A.A.A.A.A.A.A.A.A.A.A.A.A.A.A.A.A.A.A.A.A.A.A.A.A.A.A.A.A.A.A.A.A.A.A.A.A.A.A.A.A.A.A.A.A.A.A.A.A.",
"A.A.A.A.A.A.A.A.A.A.A.A.A.A.A.A.A.A.A.A.A.A.A.A.A.A.A.A.A.A.A.A.A.A.A.A.A.A.A.A.A.A.A.A.A.A.A.A.A.A.A.A.A.A.A.A.A.A.A.A.A.A.A.A.",
"A.A.A.A.A.A.A.A.A.A.A.A.A.A.A.A.A.A.A.A.A.A.A.A.A.A.A.A.A.A.A.A.A.A.A.A.A.A.A.A.A.A.A.A.A.A.A.A.A.A.A.A.A.A.A.A.A.A.A.A.A.A.A.A.",
"A.A.A.A.A.A.A.A.A.A.A.A.A.A.A.A.A.A.A.A.A.A.A.A.A.A.A.A.A.A.A.A.A.A.A.A.A.A.A.A.A.A.A.A.A.A.A.A.A.A.A.A.A.A.A.A.A.A.A.A.A.A.A.A.",
"A.A.A.A.A.A.A.A.A.A.A.A.A.A.A.A.A.A.A.A.A.A.A.A.A.A.A.A.A.A.A.A.A.A.A.A.A.A.A.A.A.A.A.A.A.A.A.A.A.A.A.A.A.A.A.A.A.A.A.A.A.A.A.A.",
"A.A.A.A.A.A.A.A.A.A.A.A.A.A.A.A.A.A.A.A.A.A.A.A.A.A.A.A.A.A.A.A.A.A.A.A.A.A.A.A.A.A.A.A.A.A.A.A.A.A.A.A.A.A.A.A.A.A.A.A.A.A.A.A.",
"A.A.A.A.A.A.A.A.A.A.A.A.A.A.A.A.A.A.A.A.A.A.A.A.A.A.A.A.A.A.A.A.A.A.A.A.A.A.A.A.A.A.A.A.A.A.A.A.A.A.A.A.A.A.A.A.A.A.A.A.A.A.A.A.",
"A.A.A.A.A.A.A.A.A.A.A.A.A.A.A.A.A.A.A.A.A.A.A.A.A.A.C.4.n.A.A.A.A.A.A.A.A.A.A.A.A.A.A.A.A.A.A.A.A.A.A.A.A.A.A.A.A.A.A.A.A.A.A.A.",
"A.A.A.A.A.A.A.A.A.A.A.A.A.A.A.A.A.A.A.A.A.A.A.A.A.V.F ~ v A.A.A.A.A.A.A.A.A.A.A.A.A.A.A.A.A.A.A.A.A.A.A.A.A.A.A.A.A.A.A.A.A.A.A.",
"A.A.A.A.A.A.A.A.A.A.A.A.A.A.A.A.A.A.A.A.A.A.A.A.A.F  . .U 5.A.A.A.A.A.A.A.A.A.A.A.A.A.A.A.A.A.A.A.A.A.A.A.A.A.A.A.A.A.A.A.A.A.A.",
"A.A.A.A.A.A.A.A.A.A.A.A.A.A.A.A.A.A.A.A.A.A.A.A.:._  . .Y :.A.A.A.A.A.A.A.A.A.A.A.A.A.A.A.A.A.A.A.A.A.A.A.A.A.A.A.A.A.A.A.A.A.A.",
"A.A.A.A.A.A.A.A.A.A.A.A.A.A.A.A.A.A.A.A.A.A.A.l.Y  . . .Y ' A.A.A.A.A.A.A.A.A.A.A.A.A.A.A.A.A.A.A.A.A.A.A.A.A.A.A.A.A.A.A.A.A.A.",
"A.A.A.A.A.A.A.A.A.A.A.A.A.A.A.A.A.A.A.A.A.A.V.N  . . . .U G A.A.A.A.A.A.A.A.A.A.A.A.A.A.A.A.A.A.A.A.A.A.A.A.A.A.A.A.A.A.A.A.A.A.",
"A.A.A.A.A.A.A.A.A.A.A.A.A.A.A.A.A.A.A.A.A.A.!  . . . ._ I ' A.A.A.A.A.A.A.A.A.A.A.A.A.A.A.A.A.A.A.A.A.A.A.A.A.A.A.A.A.A.A.A.A.A.",
"A.A.A.A.A.A.A.A.A.A.A.A.A.A.A.A.A.A.A.A.A.2.R  . . . .R U } A.A.A.A.A.A.A.A.A.A.A.A.A.A.A.A.A.A.A.A.A.A.A.A.A.A.A.A.A.A.A.A.A.A.",
"A.A.A.A.A.A.A.A.A.A.A.A.A.A.A.A.A.A.A.A.z.N  . . . . .T U 1.A.A.A.A.A.A.A.A.A.A.A.A.A.A.A.A.A.A.A.A.A.A.A.A.A.A.A.A.A.A.A.A.A.A.",
"A.A.A.A.A.A.A.A.A.A.A.A.A.A.A.A.A.A.A.C.N  . . . . . .U U :.A.A.A.A.A.A.A.A.A.A.A.A.A.A.A.A.A.A.A.A.A.A.A.A.A.A.A.A.A.A.A.A.A.A.",
"A.A.A.A.A.A.A.A.A.A.A.A.A.A.A.A.A.A.A.!  . . . . . .R U I :.A.A.A.A.A.A.A.A.A.A.A.A.A.A.A.A.A.A.A.A.A.A.A.A.A.A.A.A.A.A.A.A.A.A.",
"A.A.A.A.A.A.A.A.A.A.A.A.A.A.A.A.Z.Z.3.R  . . . . ._ U U M f ) | 2.z.Z.Z.Z.Z.A.A.A.A.A.A.A.A.A.A.A.A.A.A.A.A.A.A.A.A.A.A.A.A.A.A.",
"A.A.A.A.A.A.A.A.A.A.A.A.A.A.A.A.D.N.M  . . . . . .U U U M 2 % & % o + f 5.Z.A.A.A.A.A.A.A.A.A.A.A.A.A.A.A.A.A.A.A.A.A.A.A.A.A.A.",
"A.A.A.A.A.A.A.A.A.A.A.A.A.A.A.A.Z.Q  . . . . . .R R ~ _  .c % % % 7 % % 2 M ] N.A.A.A.A.A.A.A.A.A.A.A.A.A.A.A.A.A.A.A.A.A.A.A.A.",
"A.A.A.A.A.A.A.A.A.A.A.A.A.A.A.z.F _  . . . . . . . . . ._ ~ o % 7 E p p # T  .n 1.A.A.A.A.A.A.A.A.A.A.A.A.A.A.A.A.A.A.A.A.A.A.A.",
"A.A.A.A.A.A.A.A.A.A.A.A.A.z.) Y R  . . . . . . . . . . . . .< & y i.W - % 5  . .T ) A.A.A.A.A.A.A.A.A.A.A.A.A.A.A.A.A.A.A.A.A.A.",
"A.A.A.A.A.A.A.A.A.A.A.N.` T _ O. . . . . . . . . . . . . . .p & p p 7 % % # ~  ._ _ ) A.A.A.A.A.A.A.A.A.A.A.A.A.A.A.A.A.A.A.A.A.",
"A.A.A.A.A.A.A.A.A.A.4.Y  .#.c.c.g. . . . . . . . . . . . . .M O % % % % % % l _ _ .._ 3.A.Z.A.A.A.A.A.z.C.A.A.A.A.A.A.A.A.A.A.A.",
"A.A.A.A.A.A.A.A.A.:.T  ...c.c.c.x. .O. . . . . . . . . . . . .@ % % % % % % <  ._ %.c.` C.Z.A.A.A.A.C.2.C.:.q.A.A.A.A.A.A.A.A.A.",
"A.A.A.A.A.A.A.A.$.T  . ...g.d.X._  .X._ _ .. . . . . . . . .` < % % % % % % + ~  ...c.x.v 2.C.A.A.A.n.N.G n.C.A.A.A.A.A.A.A.A.A.",
"A.A.A.A.A.A.A.5.T _  . . ._  . . . . . . ._  . . ._ ~  . . .` p % % % % % % % x  . .a.x.v c u ! n.A.C.:.C.A.A.n.A.A.A.A.A.A.A.A.",
"A.A.A.A.A.A.V.m _  . . . . . . . . . . . . . . . . .M  . . . .x # % % % % % % q  ._  . .~ w I I e n.N.C.A.l.X.Q A.A.A.A.A.A.A.A.",
"A.A.A.A.A.A.} _  . . . . . . . . . . . . . . . . .R M  . . . .~ o % % * 7 0 p =  . . . . .l n n A A.A.A.2.R j.+.A.A.A.A.A.A.A.A.",
"A.A.A.A.A.C.n  . . . . . . . . . . . . . . ._ _ R M M  . . . . .$ % ; ( / a % o  . . . . ._ e h V.A.A.2.z g.j.1.A.A.A.A.A.A.A.A.",
"A.A.A.A.A.4.R  . . . . . . . . . . . ._ M _  ._ M T M M  . . . .< % % d E p % O M  . . . ._ e q.A.A.z.l R j.p.n.A.A.A.A.A.A.A.A.",
"A.A.A.A.A.`  . . . . . . . . . . . ._ _ X e  .Y M T l n  . .^  .q % % % > % % % g  ._ .. . .T q.A.A.N U o.j.` A.A.A.A.A.A.A.A.A.",
"A.A.A.A.A.N  . . . . ._  . . .`  . ._ T   , Y n n _ g z Y U R R w % % % 7 * % % e _  ._  . . .) A.n.l U p.j.+.A.A.A.A.A.A.A.A.A.",
"A.A.A.A.A.l U  .%.g.x.c.c.c.c.f.%..._ _ . 2  .^ T Y c l U I p.a.n % % % % % % % 1 ~ .._  . . .c V.z.c I f.j.+.C.A.A.A.A.A.A.A.A.",
"A.A.A.A.C.R f.x.b.J.K.K.K.K.K.K.K.K.b.g.8 8 r n Y ..g.l I U O.j. .% % % % % % % a v.g.g.g.a. .^ :.V.g U f.j.} A.A.A.A.A.4.N.A.A.",
"A.A.A.A.A.4.j.j.j.x.b.H.J.K.K.K.K.K.K.H.i 8 i p.p.g. .U U U N X.~ % % % % % % % c K.J.g.a. . . .N A.} n O.j. .V.A.A.4.Q Y V.A.A.",
"A.A.A.A.A.A.1.a.j.j.j.j.j.j.x.c.x.x.j.x.g.f.g. .f.{ H Q U U v 7.B % % % % % % % x K.g.Z @.o.T  .v N.C.x U O.j. .X.^ s.o.D A.A.A.",
"A.A.A.A.A.A.A.z.X.s.j.j.j.j.j.j.j.j.j.j.j.~ N } -.;.;.{ I T T w.| % % % % % % % z x. .m.0.g. .I U [ A.3.z U U ^ o.~ U u n.A.A.A.",
"A.A.A.A.A.A.A.A.A.q.$.` O.g.j.j.j.p. .) C &.;.;.;.;.;.^ I R _ J P % % % % % % % 4 s.Q B.G.g.g.R U g ' i U i b b v b ' N.A.A.A.A.",
"A.A.A.A.A.A.A.A.A.A.A.P ,.H Z V H &.;.;.;.;.;.;.,.r.,.O.I ~  .k B % % % % % % % V H L B.D.' j.g.~ I I I n [ A.A.A.A.A.A.A.A.A.A.",
"A.A.A.A.A.A.A.A.A.A.A.S ,.;.;.;.;.;.;.;.;.;.;.7.B.M.=.p.I ^ @.X.6 % % % % ; % % >.M.y.M.G.| j.x.j.s.p.o.b C.A.A.A.A.A.A.A.A.A.A.",
"A.A.A.A.A.A.A.A.A.A.z.#.y.<.;.;.;.;.;.e.6.m.9.S.D.t.Z g.M _ a.k.@ % % % 9 0 > + ,.D.G.U.G.:.{  .j.j.s.Q n.A.A.A.A.A.A.A.A.A.A.A.",
"A.A.A.A.A.A.A.A.A.A.:.#.G.8.8.6.;.;.e.r.M.B.S.G.D.t.J f.I _ a.c.< % : % y 9 % 4 r.B.D.P.F.2.A.V.4.:.5.C.A.A.A.A.A.A.A.A.A.A.A.A.",
"A.A.A.A.A.A.A.} M x M T L.m.6.e.e.u.D.S.D.D.I.I.D.9.) f.I _ f.g.t % % d a s ; j B.u.S.S.>.V.A.A.A.A.A.A.A.A.A.A.A.A.A.A.A.A.A.A.",
"A.A.A.A.A.A.z.x U _  ._ T D.r.;.r.D.D.D.D.G.P.G.u.<.~ f.U ~  . .g % % * ( E % H ;.8.7.J n.A.A.A.A.A.A.A.A.A.A.A.A.A.A.A.A.A.A.A.",
"A.A.A.A.A.A.A.A.n.2.{ N ! [ 3.u.8.r.B.S.D.D.B.u.u.7.O.j.U R ^  ._ l 2 $ O * $ Z K J 2.C.A.A.A.A.A.A.A.A.A.A.A.A.A.A.A.A.A.A.A.A.",
"A.A.A.A.A.A.A.A.A.A.A.A.C.A.A.N.5.4.| *.Z K V Z &.H  .j.f.~ Y R _  . . .T g 3 4.A.A.A.A.A.A.A.A.A.A.A.A.A.A.A.A.A.A.A.A.A.A.A.A.",
"A.A.A.A.A.A.A.A.A.A.A.A.A.A.A.A.A.A.A.A.A.A.Z.Z.A.A.1.O.j.j.s.Q U Y R ~ _ _ ~ ' A.A.A.A.A.A.A.A.A.A.A.A.A.A.A.A.A.A.A.A.A.A.A.A.",
"A.A.A.A.A.A.A.A.A.A.A.A.A.A.A.A.A.A.A.A.A.A.A.A.A.A.A.h.{ ^ R Q v l l u v ) 1.A.A.A.A.A.A.A.A.A.A.A.A.A.A.A.A.A.A.A.A.A.A.A.A.A.",
"A.A.A.A.A.A.A.A.A.A.A.A.A.A.A.A.A.A.A.A.A.A.A.A.A.A.A.A.A.A.A.A.A.V.n.V.A.A.A.A.A.A.A.A.A.A.A.A.A.A.A.A.A.A.A.A.A.A.A.A.A.A.A.A.",
"A.A.A.A.A.A.A.A.A.A.A.A.A.A.A.A.A.A.A.A.A.A.A.A.A.A.A.A.A.A.A.A.A.A.A.A.A.A.A.A.A.A.A.A.A.A.A.A.A.A.A.A.A.A.A.A.A.A.A.A.A.A.A.A.",
"A.A.A.A.A.A.A.A.A.A.A.A.A.A.A.A.A.A.A.A.A.A.A.A.A.A.A.A.A.A.A.A.A.A.A.A.A.A.A.A.A.A.A.A.A.A.A.A.A.A.A.A.A.A.A.A.A.A.A.A.A.A.A.A.",
"A.A.A.A.A.A.A.A.A.A.A.A.A.A.A.A.A.A.A.A.A.A.A.A.A.A.A.A.A.A.A.A.A.A.A.A.A.A.A.A.A.A.A.A.A.A.A.A.A.A.A.A.A.A.A.A.A.A.A.A.A.A.A.A.",
"A.A.A.A.A.A.A.A.A.A.A.A.A.A.A.A.A.A.A.A.A.A.A.A.A.A.A.A.A.A.A.A.A.A.A.A.A.A.A.A.A.A.A.A.A.A.A.A.A.A.A.A.A.A.A.A.A.A.A.A.A.A.A.A.",
"A.A.A.A.A.A.A.A.A.A.A.A.A.A.A.A.A.A.A.A.A.A.A.A.A.A.A.A.A.A.A.A.A.A.A.A.A.A.A.A.A.A.A.A.A.A.A.A.A.A.A.A.A.A.A.A.A.A.A.A.A.A.A.A.",
"A.A.A.A.A.A.A.A.A.A.A.A.A.A.A.A.A.A.A.A.A.A.A.A.A.A.A.A.A.A.A.A.A.A.A.A.A.A.A.A.A.A.A.A.A.A.A.A.A.A.A.A.A.A.A.A.A.A.A.A.A.A.A.A.",
"A.A.A.A.A.A.A.A.A.A.A.A.A.A.A.A.A.A.A.A.A.A.A.A.A.A.A.A.A.A.A.A.A.A.A.A.A.A.A.A.A.A.A.A.A.A.A.A.A.A.A.A.A.A.A.A.A.A.A.A.A.A.A.A.",
"A.A.A.A.A.A.A.A.A.A.A.A.A.A.A.A.A.A.A.A.A.A.A.A.A.A.A.A.A.A.A.A.A.A.A.A.A.A.A.A.A.A.A.A.A.A.A.A.A.A.A.A.A.A.A.A.A.A.A.A.A.A.A.A.",
"A.A.A.A.A.A.A.A.A.A.A.A.A.A.A.A.A.A.A.A.A.A.A.A.A.A.A.A.A.A.A.A.A.A.A.A.A.A.A.A.A.A.A.A.A.A.A.A.A.A.A.A.A.A.A.A.A.A.A.A.A.A.A.A.",
"A.A.A.A.A.A.A.A.A.A.A.A.A.A.A.A.A.A.A.A.A.A.A.A.A.A.A.A.A.A.A.A.A.A.A.A.A.A.A.A.A.A.A.A.A.A.A.A.A.A.A.A.A.A.A.A.A.A.A.A.A.A.A.A.",
"A.A.A.A.A.A.A.A.A.A.A.A.A.A.A.A.A.A.A.A.A.A.A.A.A.A.A.A.A.A.A.A.A.A.A.A.A.A.A.A.A.A.A.A.A.A.A.A.A.A.A.A.A.A.A.A.A.A.A.A.A.A.A.A."
};
